<svg width="20" height="20" viewBox="0 0 20 20" fill="none" xmlns="http://www.w3.org/2000/svg">
<path d="M6.88498 6.88334C4.86498 7.33584 3.33332 9.34 3.33332 11.6125C3.33328 12.8376 3.7904 14.0187 4.61523 14.9245C5.44005 15.8304 6.57321 16.3959 7.79297 16.5103C9.01273 16.6247 10.2313 16.2799 11.2102 15.5433C12.1892 14.8066 12.858 13.7312 13.0858 12.5275C13.135 12.266 13.2461 12.0201 13.4097 11.8103C13.5734 11.6005 13.785 11.433 14.0266 11.3217C14.4283 11.1358 14.785 10.9267 15.0966 10.7017C14.3775 10.1992 14.1083 9.15 14.705 8.34C15.2022 7.66732 15.5932 6.92224 15.8642 6.13082C14.9608 6.55582 13.9475 6.91084 12.8075 7.185C11.7566 7.4375 10.8141 6.65334 10.7525 5.67334C9.76914 6.15 8.52748 6.515 6.88414 6.88334H6.88498ZM16.0475 9.32834C17.0192 9.32834 17.6442 8.975 18.3341 8.83916C18.0633 10.0458 17.0833 11.7475 14.725 12.835C14.4208 14.4471 13.5259 15.8877 12.2154 16.8747C10.9049 17.8617 9.27326 18.324 7.63982 18.1712C6.00637 18.0184 4.48878 17.2614 3.38413 16.0484C2.27948 14.8355 1.66732 13.2539 1.66748 11.6133C1.66748 8.575 3.72332 5.88334 6.5208 5.2575C9.78832 4.525 11.2741 3.95166 12.4183 1.66668C12.9925 2.7775 12.9925 4.07666 12.4183 5.56416C14.765 5.00584 16.6466 4.02084 18.0633 2.6075C18.0633 6.60916 16.545 8.59584 16.0475 9.32834ZM11.1808 12.605C11.6675 12.7267 11.6675 13.2983 11.6675 13.455V14.3058C11.6675 14.7742 11.3825 14.95 10.9642 14.95H6.45246C6.05662 14.8783 5.8408 14.6625 5.8408 14.3025V13.5108C5.8408 13.115 6.0208 12.8275 6.19996 12.6108L8.82748 9.80332H6.27248C6.02082 9.80332 5.84082 9.62332 5.84082 9.29998C5.80414 8.68748 5.91248 7.71664 6.37998 7.49998C6.45248 7.49998 6.45248 7.60832 6.45248 7.64414C6.37998 7.78832 6.45248 7.89582 6.63248 7.89582H9.87082C10.5908 7.89582 11.0225 7.89582 11.275 7.82414C11.3833 7.78832 11.455 7.82414 11.4191 7.93248C11.3466 8.18414 11.3825 8.47164 11.3825 8.72414C11.3825 9.55164 11.3825 9.87582 10.735 10.5233L8.50332 12.9708L10.8783 12.9692C11.1416 12.9692 11.1816 12.8475 11.1816 12.605H11.1808Z" fill="#33322E"/>
</svg>
