<svg width="19" height="19" viewBox="0 0 19 19" fill="none" xmlns="http://www.w3.org/2000/svg">
<path d="M7.34798 2.65792C7.71134 1.91344 7.40238 1.01535 6.6579 0.651988C5.91341 0.288627 5.01532 0.59759 4.65196 1.34208L7.34798 2.65792ZM1.526 9.08333L0.375571 8.12078C0.0779516 8.47649 -0.038382 8.94987 0.0604612 9.40301C0.159304 9.85615 0.462206 10.2381 0.880924 10.4375L1.526 9.08333ZM14.5724 16.5893C14.3456 17.386 14.8076 18.2158 15.6044 18.4426C16.4012 18.6694 17.231 18.2073 17.4578 17.4106L14.5724 16.5893ZM6.25192 14.3321C6.71145 15.0213 7.64276 15.2076 8.33205 14.7481C9.02134 14.2885 9.2076 13.3572 8.74808 12.6679L6.25192 14.3321ZM4.65196 1.34208C3.6766 3.34047 2.60033 5.04525 1.76658 6.25108C1.35059 6.85272 0.997263 7.32685 0.750384 7.64762C0.627005 7.80793 0.530392 7.9297 0.466047 8.00969C0.43388 8.04967 0.409796 8.0792 0.394482 8.09786C0.386826 8.10718 0.381364 8.11379 0.378183 8.11763C0.376592 8.11955 0.375572 8.12077 0.375133 8.1213C0.374914 8.12157 0.37484 8.12165 0.374912 8.12157C0.374948 8.12152 0.375021 8.12144 0.375131 8.1213C0.375186 8.12124 0.375296 8.12111 0.375323 8.12107C0.375442 8.12093 0.375571 8.12078 1.526 9.08333C2.67643 10.0459 2.67658 10.0457 2.67673 10.0455C2.6768 10.0454 2.67696 10.0452 2.67709 10.0451C2.67735 10.0448 2.67765 10.0444 2.67798 10.044C2.67865 10.0432 2.67946 10.0423 2.68042 10.0411C2.68234 10.0388 2.68486 10.0358 2.68794 10.032C2.69412 10.0246 2.70261 10.0143 2.71333 10.0013C2.73475 9.97516 2.76508 9.93795 2.80362 9.89005C2.88067 9.79426 2.9906 9.65561 3.12778 9.47738C3.40201 9.12106 3.78587 8.60562 4.23417 7.95725C5.129 6.66308 6.28972 4.8262 7.34798 2.65792L4.65196 1.34208ZM2.04704 10.4899C3.77617 9.84942 5.73319 9.17231 7.638 8.72137C9.57008 8.26399 11.3025 8.07631 12.6288 8.3017C13.8752 8.51352 14.6284 9.05008 15.0163 10.0405C15.4628 11.1807 15.5383 13.1956 14.5724 16.5893L17.4578 17.4106C18.4843 13.8042 18.6166 11.0067 17.8097 8.94646C16.9442 6.73634 15.1337 5.68437 13.1314 5.34411C11.2092 5.01743 9.00799 5.31413 6.9469 5.80206C4.85856 6.29644 2.76283 7.02558 1.00496 7.67673L2.04704 10.4899ZM8.74808 12.6679C7.52312 10.8305 5.22934 9.18593 2.17108 7.72913L0.880924 10.4375C3.77066 11.8141 5.47688 13.1695 6.25192 14.3321L8.74808 12.6679Z" fill="#33322E"/>
</svg>
