<svg width="20" height="20" viewBox="0 0 20 20" fill="none" xmlns="http://www.w3.org/2000/svg">
<g clip-path="url(#clip0_1964_2613)">
<mask id="mask0_1964_2613" style="mask-type:luminance" maskUnits="userSpaceOnUse" x="0" y="0" width="20" height="20">
<path d="M20 0H0V20H20V0Z" fill="white"/>
</mask>
<g mask="url(#mask0_1964_2613)">
<path fill-rule="evenodd" clip-rule="evenodd" d="M6.71692 14.0126C6.41937 14.1494 6.00062 14.2186 5.46449 14.2186H2.46336V11.0969H5.50708C6.03611 11.1017 6.44885 11.1682 6.74258 11.2951C7.26834 11.5236 7.52931 11.9413 7.52931 12.5514C7.52931 13.271 7.25906 13.7563 6.71692 14.0126ZM2.46336 6.57746H5.15439C5.74566 6.57746 6.23266 6.63878 6.61592 6.76037C7.05814 6.93648 7.27926 7.29602 7.27926 7.84268C7.27926 8.33273 7.1111 8.67551 6.77698 8.86944C6.44067 9.06336 6.00445 9.16032 5.46941 9.16032H2.46336V6.57746ZM8.22813 9.96904C8.85817 10.1871 9.33315 10.5309 9.6569 11.0021C9.97683 11.4722 10.1379 12.0446 10.1379 12.7175C10.1379 13.4115 9.95445 14.0341 9.58593 14.5839C9.35335 14.9482 9.06181 15.2558 8.7113 15.5048C8.31767 15.7915 7.85306 15.9859 7.31529 16.0929C6.77807 16.1987 6.19717 16.2501 5.56932 16.2501H0V4.54544H5.97278C7.48017 4.56641 8.54697 4.98203 9.17591 5.79232C9.55317 6.29024 9.74262 6.88511 9.74262 7.57905C9.74262 8.29238 9.55317 8.86839 9.171 9.30288C8.95699 9.54555 8.64306 9.7683 8.22813 9.96904ZM12.7798 6.54758V5.09105H18.0762V6.54758H12.7798ZM19.1874 9.05104C19.5652 9.56573 19.8076 10.1627 19.9179 10.8409C19.9828 11.2371 20.0085 11.8121 19.9976 12.5595H13.3385C13.3784 13.4269 13.6934 14.036 14.2961 14.385C14.6603 14.602 15.0992 14.711 15.6141 14.711C16.1562 14.711 16.5995 14.5784 16.9391 14.3143C17.1264 14.1707 17.2907 13.9725 17.4321 13.7189H19.872C19.8076 14.2309 19.5111 14.7535 18.9865 15.2834C18.1681 16.124 17.0215 16.5454 15.548 16.5454C14.3311 16.5454 13.2577 16.1911 12.3296 15.4804C11.3971 14.7713 10.9336 13.6151 10.9336 12.0155C10.9336 10.5154 11.3534 9.36499 12.192 8.56466C13.0328 7.7659 14.1203 7.3639 15.4601 7.3639C16.2561 7.3639 16.9719 7.49965 17.6095 7.77009C18.2483 8.04001 18.7735 8.4677 19.1874 9.05104ZM13.3975 11.0658H17.5167C17.4731 10.4646 17.259 10.0102 16.8801 9.69728C16.4969 9.38648 16.0252 9.23134 15.4612 9.23134C14.8497 9.23134 14.372 9.39644 14.0346 9.72611C13.6972 10.0558 13.4843 10.5023 13.3975 11.0658Z" fill="#33322E"/>
</g>
</g>
<defs>
<clipPath id="clip0_1964_2613">
<rect width="20" height="20" fill="white"/>
</clipPath>
</defs>
</svg>
