<svg width="20" height="20" viewBox="0 0 20 20" fill="none" xmlns="http://www.w3.org/2000/svg">
<path fill-rule="evenodd" clip-rule="evenodd" d="M4.73252 3.67094C4.33229 3.28484 4.33229 2.64373 4.73252 2.25764C5.11291 1.89068 5.71552 1.89068 6.09591 2.25764L8.21723 4.30403C8.27749 4.36218 8.32869 4.4261 8.37081 4.49407H11.5789C11.6211 4.4261 11.6723 4.36218 11.7325 4.30403L13.8538 2.25764C14.2342 1.89068 14.8368 1.89068 15.2172 2.25764C15.6175 2.64373 15.6175 3.28484 15.2172 3.67094L14.364 4.49407H15C17.2091 4.49407 19 6.28493 19 8.49407V13.9996C19 16.2087 17.2091 17.9996 15 17.9996H5C2.79086 17.9996 1 16.2087 1 13.9996V8.49406C1 6.28492 2.79086 4.49407 5 4.49407H5.58579L4.73252 3.67094ZM5 6.42343C3.89543 6.42343 3 7.31886 3 8.42343V14.0702C3 15.1748 3.89543 16.0702 5 16.0702H15C16.1046 16.0702 17 15.1748 17 14.0702V8.42343C17 7.31886 16.1046 6.42343 15 6.42343H5ZM6 10.3175C6 9.76519 6.44772 9.31747 7 9.31747C7.55228 9.31747 8 9.76519 8 10.3175V11.2115C8 11.7638 7.55228 12.2115 7 12.2115C6.44772 12.2115 6 11.7638 6 11.2115V10.3175ZM13 9.31747C12.4477 9.31747 12 9.76519 12 10.3175V11.2115C12 11.7638 12.4477 12.2115 13 12.2115C13.5523 12.2115 14 11.7638 14 11.2115V10.3175C14 9.76519 13.5523 9.31747 13 9.31747Z" fill="#33322E"/>
</svg>
