<svg width="72" height="72" viewBox="0 0 72 72" fill="none" xmlns="http://www.w3.org/2000/svg">
<rect width="72" height="72" rx="6" fill="#202020"/>
<path fill-rule="evenodd" clip-rule="evenodd" d="M36.8495 17.9125C26.0344 17.686 15.4009 20.715 6.32861 26.6067L10.7372 33.3953C15.4927 30.3071 20.7529 28.1441 26.2427 26.9849C22.5171 29.8765 20.1195 34.3977 20.1195 39.4789C20.1195 48.2085 27.1962 55.2853 35.9258 55.2853C44.6554 55.2853 51.7321 48.2085 51.7321 39.4789C51.7321 34.47 49.4022 30.0052 45.767 27.1093C51.6798 28.4368 57.3015 30.9297 62.2905 34.4752L66.9795 27.8771C58.1619 21.6108 47.6646 18.1391 36.8495 17.9125ZM28.0227 39.4789C28.0227 35.1141 31.561 31.5758 35.9258 31.5758C40.2906 31.5758 43.8289 35.1141 43.8289 39.4789C43.8289 43.8437 40.2906 47.3821 35.9258 47.3821C31.561 47.3821 28.0227 43.8437 28.0227 39.4789Z" fill="white"/>
</svg>
