<svg width="24" height="24" viewBox="0 0 24 24" fill="none" xmlns="http://www.w3.org/2000/svg">
<path d="M1 6.75C1 5.23105 2.23106 4 3.75 4H20.25C21.7667 4 23 5.23105 23 6.75V17.75C23 19.2667 21.7667 20.5 20.25 20.5H3.75C2.23106 20.5 1 19.2667 1 17.75V6.75ZM2.375 6.75V8.46445L10.7797 14.6261C11.5058 15.1589 12.4941 15.1589 13.2203 14.6261L21.625 8.46445V6.75C21.625 5.98945 21.0105 5.375 20.25 5.375H3.71133C2.99075 5.375 2.33633 5.98945 2.33633 6.75H2.375ZM2.375 10.1703V17.75C2.375 18.5105 2.99075 19.125 3.75 19.125H20.25C21.0105 19.125 21.625 18.5105 21.625 17.75V10.1703L14.0324 15.7347C12.8207 16.6242 11.1792 16.6242 9.96753 15.7347L2.375 10.1703Z" fill="#33322E" stroke="#33322E" stroke-width="0.7"/>
</svg>
