<svg width="40" height="20" viewBox="0 0 40 20" fill="none" xmlns="http://www.w3.org/2000/svg">
<path d="M37.931 4.85375L37.8719 4.79466C37.3369 4.28266 36.7659 4.44676 36.3556 4.70604C35.9979 4.93251 35.7812 5.32964 35.7812 5.75303V6.92471H37.0087C38.0852 6.92799 38.6695 5.63487 37.931 4.85375Z" fill="#33322E"/>
<path d="M35.2128 8.86769C35.2128 8.32943 35.2095 6.72452 35.1997 6.23548C35.1866 4.58461 33.493 4.624 33.493 4.624H31.6518L31.6387 3.68205H29.3281V4.624H27.8118V6.8558H29.3051V8.85456H27.0569V11.2111H29.3708V16.2753H31.6616V11.1782C32.7907 11.1782 33.8212 11.1618 34.8485 11.1848C35.3605 11.1947 35.6362 11.5229 35.6526 12.025C35.6723 12.6256 35.6526 14.3618 35.6526 14.3618L33.3388 14.3553L34.2282 16.2753H36.355C36.355 16.2753 37.9894 16.3179 37.9894 14.6474V10.6072C37.9927 9.25496 37.1591 8.85785 35.2128 8.86769ZM33.1976 8.85785H31.6715L31.6551 6.85907H33.2009V8.85785H33.1976ZM2.18555 12.77C2.63191 13.5577 3.07826 14.3421 3.56401 15.1987C5.38555 12.642 5.3035 6.92142 5.3035 6.92142H2.87149C3.06842 9.98028 2.18883 12.6781 2.18555 12.77ZM6.95109 3.68203V14.3782H5.4118L6.8756 16.3212H8.27704C8.27704 16.3212 9.25837 16.3212 9.23539 14.8902C9.2518 11.385 9.25508 7.18399 9.25837 3.67875C8.49364 3.67875 7.72236 3.67875 6.95108 3.68203H6.95109ZM18.796 9.80306C19.2686 8.84798 19.7445 7.89618 20.2762 6.81968C19.2686 6.87875 18.4218 6.92798 17.4799 6.98049C17.8836 5.90726 18.5138 4.80777 19.0815 3.67546H16.771C16.0982 5.05721 15.3892 6.42254 14.7591 7.8207C14.3587 8.70357 14.6836 9.13681 15.6551 9.16963C15.9833 9.18275 16.3115 9.1729 16.7644 9.1729C16.6069 9.51751 16.5018 9.75054 16.3968 9.98357C16.0883 10.6597 15.7601 11.3292 15.4811 12.0184C15.2547 12.5764 15.4746 13.0195 16.0621 13.0851C16.8727 13.1737 17.6932 13.1475 18.5072 13.1507C18.5991 13.1507 18.7304 13.049 18.7796 12.9571C19.0717 12.4156 19.3441 11.8609 19.6526 11.2537C19.4426 11.2373 19.331 11.2209 19.2161 11.2176C18.1133 11.1881 18.1133 11.1848 18.6089 10.1871C18.668 10.0656 18.7304 9.93105 18.796 9.80306Z" fill="#33322E"/>
<path d="M24.6249 14.1058H27.0241V16.3245H18.7271C19.1308 15.527 19.8463 14.1058 19.8463 14.1058H22.2126V6.85251H20.739V4.58461H26.0854V6.8164H24.6249V14.1058V14.1058ZM10.9027 6.89846H13.1804C13.0065 9.16307 13.7384 12.1858 13.7384 12.1858C13.7384 12.1858 13.0754 13.6726 12.5929 15.0675C11.4869 14.1026 10.8863 11.2012 10.9027 6.89846ZM15.0052 13.9647H18.6943C18.2807 14.7721 17.9558 15.4285 17.6013 16.0718C17.5357 16.1899 17.3388 16.3015 17.2009 16.3048C16.1244 16.3212 15.0512 16.3147 13.8138 16.3147C14.2832 15.3858 14.6672 14.631 15.0052 13.9647Z" fill="#33322E"/>
</svg>
